G04 #@! TF.GenerationSoftware,KiCad,Pcbnew,(5.1.12)-1*
G04 #@! TF.CreationDate,2021-12-08T10:01:55+00:00*
G04 #@! TF.ProjectId,PIDController,50494443-6f6e-4747-926f-6c6c65722e6b,rev?*
G04 #@! TF.SameCoordinates,Original*
G04 #@! TF.FileFunction,Soldermask,Bot*
G04 #@! TF.FilePolarity,Negative*
%FSLAX46Y46*%
G04 Gerber Fmt 4.6, Leading zero omitted, Abs format (unit mm)*
G04 Created by KiCad (PCBNEW (5.1.12)-1) date 2021-12-08 10:01:55*
%MOMM*%
%LPD*%
G01*
G04 APERTURE LIST*
%ADD10C,3.200000*%
%ADD11O,1.600000X1.600000*%
%ADD12R,1.600000X1.600000*%
%ADD13R,3.000000X3.000000*%
%ADD14C,3.000000*%
%ADD15R,1.700000X1.700000*%
%ADD16O,1.700000X1.700000*%
%ADD17C,8.000000*%
%ADD18R,4.500000X3.500000*%
G04 APERTURE END LIST*
D10*
X184150000Y-152400000D03*
X109220000Y-153035000D03*
X183515000Y-31750000D03*
X109855000Y-31750000D03*
D11*
X166620000Y-102870000D03*
X164080000Y-102870000D03*
D12*
X157480000Y-54610000D03*
D11*
X127000000Y-102870000D03*
X154940000Y-54610000D03*
X129540000Y-102870000D03*
X152400000Y-54610000D03*
X132080000Y-102870000D03*
X149860000Y-54610000D03*
X134620000Y-102870000D03*
X147320000Y-54610000D03*
X137160000Y-102870000D03*
X144780000Y-54610000D03*
X139700000Y-102870000D03*
X142240000Y-54610000D03*
X143760000Y-102870000D03*
X139700000Y-54610000D03*
X146300000Y-102870000D03*
X134620000Y-54610000D03*
X148840000Y-102870000D03*
X132080000Y-54610000D03*
X151380000Y-102870000D03*
X129540000Y-54610000D03*
X153920000Y-102870000D03*
X127000000Y-54610000D03*
X156460000Y-102870000D03*
X124460000Y-54610000D03*
X159000000Y-102870000D03*
X121920000Y-54610000D03*
X161540000Y-102870000D03*
X121920000Y-102870000D03*
X124460000Y-102870000D03*
D13*
X114960400Y-44551600D03*
D14*
X109880400Y-44551600D03*
X176453800Y-45212000D03*
D13*
X181533800Y-45212000D03*
D15*
X120650000Y-149225000D03*
D16*
X120650000Y-151765000D03*
X123190000Y-149225000D03*
X123190000Y-151765000D03*
X125730000Y-149225000D03*
X125730000Y-151765000D03*
X128270000Y-149225000D03*
X128270000Y-151765000D03*
X130810000Y-149225000D03*
X130810000Y-151765000D03*
D12*
X157302200Y-148971000D03*
D11*
X142062200Y-115951000D03*
X157302200Y-146431000D03*
X142062200Y-118491000D03*
X157302200Y-143891000D03*
X142062200Y-121031000D03*
X157302200Y-141351000D03*
X142062200Y-123571000D03*
X157302200Y-138811000D03*
X142062200Y-126111000D03*
X157302200Y-136271000D03*
X142062200Y-128651000D03*
X157302200Y-133731000D03*
X142062200Y-131191000D03*
X157302200Y-131191000D03*
X142062200Y-133731000D03*
X157302200Y-128651000D03*
X142062200Y-136271000D03*
X157302200Y-126111000D03*
X142062200Y-138811000D03*
X157302200Y-123571000D03*
X142062200Y-141351000D03*
X157302200Y-121031000D03*
X142062200Y-143891000D03*
X157302200Y-118491000D03*
X142062200Y-146431000D03*
X157302200Y-115951000D03*
X142062200Y-148971000D03*
X157302200Y-113411000D03*
X142062200Y-113411000D03*
D17*
X177800000Y-60833000D03*
X178003200Y-96697800D03*
X126568200Y-65024000D03*
X126034800Y-92430600D03*
D15*
X175133000Y-144754600D03*
D16*
X177673000Y-144754600D03*
X175133000Y-142214600D03*
X177673000Y-142214600D03*
X175133000Y-139674600D03*
X177673000Y-139674600D03*
D18*
X163499800Y-48564800D03*
G36*
G01*
X161999800Y-40914800D02*
X164999800Y-40914800D01*
G75*
G02*
X165749800Y-41664800I0J-750000D01*
G01*
X165749800Y-43164800D01*
G75*
G02*
X164999800Y-43914800I-750000J0D01*
G01*
X161999800Y-43914800D01*
G75*
G02*
X161249800Y-43164800I0J750000D01*
G01*
X161249800Y-41664800D01*
G75*
G02*
X161999800Y-40914800I750000J0D01*
G01*
G37*
G36*
G01*
X157624800Y-43264800D02*
X159374800Y-43264800D01*
G75*
G02*
X160249800Y-44139800I0J-875000D01*
G01*
X160249800Y-46389800D01*
G75*
G02*
X159374800Y-47264800I-875000J0D01*
G01*
X157624800Y-47264800D01*
G75*
G02*
X156749800Y-46389800I0J875000D01*
G01*
X156749800Y-44139800D01*
G75*
G02*
X157624800Y-43264800I875000J0D01*
G01*
G37*
M02*
