G04 #@! TF.GenerationSoftware,KiCad,Pcbnew,(5.1.12)-1*
G04 #@! TF.CreationDate,2021-12-08T10:01:55+00:00*
G04 #@! TF.ProjectId,PIDController,50494443-6f6e-4747-926f-6c6c65722e6b,rev?*
G04 #@! TF.SameCoordinates,Original*
G04 #@! TF.FileFunction,Paste,Top*
G04 #@! TF.FilePolarity,Positive*
%FSLAX46Y46*%
G04 Gerber Fmt 4.6, Leading zero omitted, Abs format (unit mm)*
G04 Created by KiCad (PCBNEW (5.1.12)-1) date 2021-12-08 10:01:55*
%MOMM*%
%LPD*%
G01*
G04 APERTURE LIST*
G04 APERTURE END LIST*
G36*
G01*
X136346250Y-137315000D02*
X135433750Y-137315000D01*
G75*
G02*
X135190000Y-137071250I0J243750D01*
G01*
X135190000Y-136583750D01*
G75*
G02*
X135433750Y-136340000I243750J0D01*
G01*
X136346250Y-136340000D01*
G75*
G02*
X136590000Y-136583750I0J-243750D01*
G01*
X136590000Y-137071250D01*
G75*
G02*
X136346250Y-137315000I-243750J0D01*
G01*
G37*
G36*
G01*
X136346250Y-135440000D02*
X135433750Y-135440000D01*
G75*
G02*
X135190000Y-135196250I0J243750D01*
G01*
X135190000Y-134708750D01*
G75*
G02*
X135433750Y-134465000I243750J0D01*
G01*
X136346250Y-134465000D01*
G75*
G02*
X136590000Y-134708750I0J-243750D01*
G01*
X136590000Y-135196250D01*
G75*
G02*
X136346250Y-135440000I-243750J0D01*
G01*
G37*
G36*
G01*
X125353000Y-141890000D02*
X124837000Y-141890000D01*
G75*
G02*
X124795000Y-141848000I0J42000D01*
G01*
X124795000Y-139962000D01*
G75*
G02*
X124837000Y-139920000I42000J0D01*
G01*
X125353000Y-139920000D01*
G75*
G02*
X125395000Y-139962000I0J-42000D01*
G01*
X125395000Y-141848000D01*
G75*
G02*
X125353000Y-141890000I-42000J0D01*
G01*
G37*
G36*
G01*
X126623000Y-141890000D02*
X126107000Y-141890000D01*
G75*
G02*
X126065000Y-141848000I0J42000D01*
G01*
X126065000Y-139962000D01*
G75*
G02*
X126107000Y-139920000I42000J0D01*
G01*
X126623000Y-139920000D01*
G75*
G02*
X126665000Y-139962000I0J-42000D01*
G01*
X126665000Y-141848000D01*
G75*
G02*
X126623000Y-141890000I-42000J0D01*
G01*
G37*
G36*
G01*
X127893000Y-141890000D02*
X127377000Y-141890000D01*
G75*
G02*
X127335000Y-141848000I0J42000D01*
G01*
X127335000Y-139962000D01*
G75*
G02*
X127377000Y-139920000I42000J0D01*
G01*
X127893000Y-139920000D01*
G75*
G02*
X127935000Y-139962000I0J-42000D01*
G01*
X127935000Y-141848000D01*
G75*
G02*
X127893000Y-141890000I-42000J0D01*
G01*
G37*
G36*
G01*
X129163000Y-141890000D02*
X128647000Y-141890000D01*
G75*
G02*
X128605000Y-141848000I0J42000D01*
G01*
X128605000Y-139962000D01*
G75*
G02*
X128647000Y-139920000I42000J0D01*
G01*
X129163000Y-139920000D01*
G75*
G02*
X129205000Y-139962000I0J-42000D01*
G01*
X129205000Y-141848000D01*
G75*
G02*
X129163000Y-141890000I-42000J0D01*
G01*
G37*
G36*
G01*
X130433000Y-141890000D02*
X129917000Y-141890000D01*
G75*
G02*
X129875000Y-141848000I0J42000D01*
G01*
X129875000Y-139962000D01*
G75*
G02*
X129917000Y-139920000I42000J0D01*
G01*
X130433000Y-139920000D01*
G75*
G02*
X130475000Y-139962000I0J-42000D01*
G01*
X130475000Y-141848000D01*
G75*
G02*
X130433000Y-141890000I-42000J0D01*
G01*
G37*
G36*
G01*
X131703000Y-141890000D02*
X131187000Y-141890000D01*
G75*
G02*
X131145000Y-141848000I0J42000D01*
G01*
X131145000Y-139962000D01*
G75*
G02*
X131187000Y-139920000I42000J0D01*
G01*
X131703000Y-139920000D01*
G75*
G02*
X131745000Y-139962000I0J-42000D01*
G01*
X131745000Y-141848000D01*
G75*
G02*
X131703000Y-141890000I-42000J0D01*
G01*
G37*
G36*
G01*
X132973000Y-141890000D02*
X132457000Y-141890000D01*
G75*
G02*
X132415000Y-141848000I0J42000D01*
G01*
X132415000Y-139962000D01*
G75*
G02*
X132457000Y-139920000I42000J0D01*
G01*
X132973000Y-139920000D01*
G75*
G02*
X133015000Y-139962000I0J-42000D01*
G01*
X133015000Y-141848000D01*
G75*
G02*
X132973000Y-141890000I-42000J0D01*
G01*
G37*
G36*
G01*
X134243000Y-141890000D02*
X133727000Y-141890000D01*
G75*
G02*
X133685000Y-141848000I0J42000D01*
G01*
X133685000Y-139962000D01*
G75*
G02*
X133727000Y-139920000I42000J0D01*
G01*
X134243000Y-139920000D01*
G75*
G02*
X134285000Y-139962000I0J-42000D01*
G01*
X134285000Y-141848000D01*
G75*
G02*
X134243000Y-141890000I-42000J0D01*
G01*
G37*
G36*
G01*
X134243000Y-136940000D02*
X133727000Y-136940000D01*
G75*
G02*
X133685000Y-136898000I0J42000D01*
G01*
X133685000Y-135012000D01*
G75*
G02*
X133727000Y-134970000I42000J0D01*
G01*
X134243000Y-134970000D01*
G75*
G02*
X134285000Y-135012000I0J-42000D01*
G01*
X134285000Y-136898000D01*
G75*
G02*
X134243000Y-136940000I-42000J0D01*
G01*
G37*
G36*
G01*
X132973000Y-136940000D02*
X132457000Y-136940000D01*
G75*
G02*
X132415000Y-136898000I0J42000D01*
G01*
X132415000Y-135012000D01*
G75*
G02*
X132457000Y-134970000I42000J0D01*
G01*
X132973000Y-134970000D01*
G75*
G02*
X133015000Y-135012000I0J-42000D01*
G01*
X133015000Y-136898000D01*
G75*
G02*
X132973000Y-136940000I-42000J0D01*
G01*
G37*
G36*
G01*
X131703000Y-136940000D02*
X131187000Y-136940000D01*
G75*
G02*
X131145000Y-136898000I0J42000D01*
G01*
X131145000Y-135012000D01*
G75*
G02*
X131187000Y-134970000I42000J0D01*
G01*
X131703000Y-134970000D01*
G75*
G02*
X131745000Y-135012000I0J-42000D01*
G01*
X131745000Y-136898000D01*
G75*
G02*
X131703000Y-136940000I-42000J0D01*
G01*
G37*
G36*
G01*
X130433000Y-136940000D02*
X129917000Y-136940000D01*
G75*
G02*
X129875000Y-136898000I0J42000D01*
G01*
X129875000Y-135012000D01*
G75*
G02*
X129917000Y-134970000I42000J0D01*
G01*
X130433000Y-134970000D01*
G75*
G02*
X130475000Y-135012000I0J-42000D01*
G01*
X130475000Y-136898000D01*
G75*
G02*
X130433000Y-136940000I-42000J0D01*
G01*
G37*
G36*
G01*
X129163000Y-136940000D02*
X128647000Y-136940000D01*
G75*
G02*
X128605000Y-136898000I0J42000D01*
G01*
X128605000Y-135012000D01*
G75*
G02*
X128647000Y-134970000I42000J0D01*
G01*
X129163000Y-134970000D01*
G75*
G02*
X129205000Y-135012000I0J-42000D01*
G01*
X129205000Y-136898000D01*
G75*
G02*
X129163000Y-136940000I-42000J0D01*
G01*
G37*
G36*
G01*
X127893000Y-136940000D02*
X127377000Y-136940000D01*
G75*
G02*
X127335000Y-136898000I0J42000D01*
G01*
X127335000Y-135012000D01*
G75*
G02*
X127377000Y-134970000I42000J0D01*
G01*
X127893000Y-134970000D01*
G75*
G02*
X127935000Y-135012000I0J-42000D01*
G01*
X127935000Y-136898000D01*
G75*
G02*
X127893000Y-136940000I-42000J0D01*
G01*
G37*
G36*
G01*
X126623000Y-136940000D02*
X126107000Y-136940000D01*
G75*
G02*
X126065000Y-136898000I0J42000D01*
G01*
X126065000Y-135012000D01*
G75*
G02*
X126107000Y-134970000I42000J0D01*
G01*
X126623000Y-134970000D01*
G75*
G02*
X126665000Y-135012000I0J-42000D01*
G01*
X126665000Y-136898000D01*
G75*
G02*
X126623000Y-136940000I-42000J0D01*
G01*
G37*
G36*
G01*
X125353000Y-136940000D02*
X124837000Y-136940000D01*
G75*
G02*
X124795000Y-136898000I0J42000D01*
G01*
X124795000Y-135012000D01*
G75*
G02*
X124837000Y-134970000I42000J0D01*
G01*
X125353000Y-134970000D01*
G75*
G02*
X125395000Y-135012000I0J-42000D01*
G01*
X125395000Y-136898000D01*
G75*
G02*
X125353000Y-136940000I-42000J0D01*
G01*
G37*
G36*
G01*
X133140000Y-122270000D02*
X133560000Y-122270000D01*
G75*
G02*
X133650000Y-122360000I0J-90000D01*
G01*
X133650000Y-124150000D01*
G75*
G02*
X133560000Y-124240000I-90000J0D01*
G01*
X133140000Y-124240000D01*
G75*
G02*
X133050000Y-124150000I0J90000D01*
G01*
X133050000Y-122360000D01*
G75*
G02*
X133140000Y-122270000I90000J0D01*
G01*
G37*
G36*
G01*
X131870000Y-122270000D02*
X132290000Y-122270000D01*
G75*
G02*
X132380000Y-122360000I0J-90000D01*
G01*
X132380000Y-124150000D01*
G75*
G02*
X132290000Y-124240000I-90000J0D01*
G01*
X131870000Y-124240000D01*
G75*
G02*
X131780000Y-124150000I0J90000D01*
G01*
X131780000Y-122360000D01*
G75*
G02*
X131870000Y-122270000I90000J0D01*
G01*
G37*
G36*
G01*
X130600000Y-122270000D02*
X131020000Y-122270000D01*
G75*
G02*
X131110000Y-122360000I0J-90000D01*
G01*
X131110000Y-124150000D01*
G75*
G02*
X131020000Y-124240000I-90000J0D01*
G01*
X130600000Y-124240000D01*
G75*
G02*
X130510000Y-124150000I0J90000D01*
G01*
X130510000Y-122360000D01*
G75*
G02*
X130600000Y-122270000I90000J0D01*
G01*
G37*
G36*
G01*
X129330000Y-122270000D02*
X129750000Y-122270000D01*
G75*
G02*
X129840000Y-122360000I0J-90000D01*
G01*
X129840000Y-124150000D01*
G75*
G02*
X129750000Y-124240000I-90000J0D01*
G01*
X129330000Y-124240000D01*
G75*
G02*
X129240000Y-124150000I0J90000D01*
G01*
X129240000Y-122360000D01*
G75*
G02*
X129330000Y-122270000I90000J0D01*
G01*
G37*
G36*
G01*
X128060000Y-122270000D02*
X128480000Y-122270000D01*
G75*
G02*
X128570000Y-122360000I0J-90000D01*
G01*
X128570000Y-124150000D01*
G75*
G02*
X128480000Y-124240000I-90000J0D01*
G01*
X128060000Y-124240000D01*
G75*
G02*
X127970000Y-124150000I0J90000D01*
G01*
X127970000Y-122360000D01*
G75*
G02*
X128060000Y-122270000I90000J0D01*
G01*
G37*
G36*
G01*
X126790000Y-122270000D02*
X127210000Y-122270000D01*
G75*
G02*
X127300000Y-122360000I0J-90000D01*
G01*
X127300000Y-124150000D01*
G75*
G02*
X127210000Y-124240000I-90000J0D01*
G01*
X126790000Y-124240000D01*
G75*
G02*
X126700000Y-124150000I0J90000D01*
G01*
X126700000Y-122360000D01*
G75*
G02*
X126790000Y-122270000I90000J0D01*
G01*
G37*
G36*
G01*
X125520000Y-122270000D02*
X125940000Y-122270000D01*
G75*
G02*
X126030000Y-122360000I0J-90000D01*
G01*
X126030000Y-124150000D01*
G75*
G02*
X125940000Y-124240000I-90000J0D01*
G01*
X125520000Y-124240000D01*
G75*
G02*
X125430000Y-124150000I0J90000D01*
G01*
X125430000Y-122360000D01*
G75*
G02*
X125520000Y-122270000I90000J0D01*
G01*
G37*
G36*
G01*
X125520000Y-127220000D02*
X125940000Y-127220000D01*
G75*
G02*
X126030000Y-127310000I0J-90000D01*
G01*
X126030000Y-129100000D01*
G75*
G02*
X125940000Y-129190000I-90000J0D01*
G01*
X125520000Y-129190000D01*
G75*
G02*
X125430000Y-129100000I0J90000D01*
G01*
X125430000Y-127310000D01*
G75*
G02*
X125520000Y-127220000I90000J0D01*
G01*
G37*
G36*
G01*
X126790000Y-127220000D02*
X127210000Y-127220000D01*
G75*
G02*
X127300000Y-127310000I0J-90000D01*
G01*
X127300000Y-129100000D01*
G75*
G02*
X127210000Y-129190000I-90000J0D01*
G01*
X126790000Y-129190000D01*
G75*
G02*
X126700000Y-129100000I0J90000D01*
G01*
X126700000Y-127310000D01*
G75*
G02*
X126790000Y-127220000I90000J0D01*
G01*
G37*
G36*
G01*
X128060000Y-127220000D02*
X128480000Y-127220000D01*
G75*
G02*
X128570000Y-127310000I0J-90000D01*
G01*
X128570000Y-129100000D01*
G75*
G02*
X128480000Y-129190000I-90000J0D01*
G01*
X128060000Y-129190000D01*
G75*
G02*
X127970000Y-129100000I0J90000D01*
G01*
X127970000Y-127310000D01*
G75*
G02*
X128060000Y-127220000I90000J0D01*
G01*
G37*
G36*
G01*
X129330000Y-127220000D02*
X129750000Y-127220000D01*
G75*
G02*
X129840000Y-127310000I0J-90000D01*
G01*
X129840000Y-129100000D01*
G75*
G02*
X129750000Y-129190000I-90000J0D01*
G01*
X129330000Y-129190000D01*
G75*
G02*
X129240000Y-129100000I0J90000D01*
G01*
X129240000Y-127310000D01*
G75*
G02*
X129330000Y-127220000I90000J0D01*
G01*
G37*
G36*
G01*
X130600000Y-127220000D02*
X131020000Y-127220000D01*
G75*
G02*
X131110000Y-127310000I0J-90000D01*
G01*
X131110000Y-129100000D01*
G75*
G02*
X131020000Y-129190000I-90000J0D01*
G01*
X130600000Y-129190000D01*
G75*
G02*
X130510000Y-129100000I0J90000D01*
G01*
X130510000Y-127310000D01*
G75*
G02*
X130600000Y-127220000I90000J0D01*
G01*
G37*
G36*
G01*
X131870000Y-127220000D02*
X132290000Y-127220000D01*
G75*
G02*
X132380000Y-127310000I0J-90000D01*
G01*
X132380000Y-129100000D01*
G75*
G02*
X132290000Y-129190000I-90000J0D01*
G01*
X131870000Y-129190000D01*
G75*
G02*
X131780000Y-129100000I0J90000D01*
G01*
X131780000Y-127310000D01*
G75*
G02*
X131870000Y-127220000I90000J0D01*
G01*
G37*
G36*
G01*
X133140000Y-127220000D02*
X133560000Y-127220000D01*
G75*
G02*
X133650000Y-127310000I0J-90000D01*
G01*
X133650000Y-129100000D01*
G75*
G02*
X133560000Y-129190000I-90000J0D01*
G01*
X133140000Y-129190000D01*
G75*
G02*
X133050000Y-129100000I0J90000D01*
G01*
X133050000Y-127310000D01*
G75*
G02*
X133140000Y-127220000I90000J0D01*
G01*
G37*
G36*
G01*
X134170000Y-120193750D02*
X134170000Y-121106250D01*
G75*
G02*
X133926250Y-121350000I-243750J0D01*
G01*
X133438750Y-121350000D01*
G75*
G02*
X133195000Y-121106250I0J243750D01*
G01*
X133195000Y-120193750D01*
G75*
G02*
X133438750Y-119950000I243750J0D01*
G01*
X133926250Y-119950000D01*
G75*
G02*
X134170000Y-120193750I0J-243750D01*
G01*
G37*
G36*
G01*
X136045000Y-120193750D02*
X136045000Y-121106250D01*
G75*
G02*
X135801250Y-121350000I-243750J0D01*
G01*
X135313750Y-121350000D01*
G75*
G02*
X135070000Y-121106250I0J243750D01*
G01*
X135070000Y-120193750D01*
G75*
G02*
X135313750Y-119950000I243750J0D01*
G01*
X135801250Y-119950000D01*
G75*
G02*
X136045000Y-120193750I0J-243750D01*
G01*
G37*
G36*
G01*
X136045000Y-130353750D02*
X136045000Y-131266250D01*
G75*
G02*
X135801250Y-131510000I-243750J0D01*
G01*
X135313750Y-131510000D01*
G75*
G02*
X135070000Y-131266250I0J243750D01*
G01*
X135070000Y-130353750D01*
G75*
G02*
X135313750Y-130110000I243750J0D01*
G01*
X135801250Y-130110000D01*
G75*
G02*
X136045000Y-130353750I0J-243750D01*
G01*
G37*
G36*
G01*
X134170000Y-130353750D02*
X134170000Y-131266250D01*
G75*
G02*
X133926250Y-131510000I-243750J0D01*
G01*
X133438750Y-131510000D01*
G75*
G02*
X133195000Y-131266250I0J243750D01*
G01*
X133195000Y-130353750D01*
G75*
G02*
X133438750Y-130110000I243750J0D01*
G01*
X133926250Y-130110000D01*
G75*
G02*
X134170000Y-130353750I0J-243750D01*
G01*
G37*
G36*
G01*
X125575000Y-131266250D02*
X125575000Y-130353750D01*
G75*
G02*
X125818750Y-130110000I243750J0D01*
G01*
X126306250Y-130110000D01*
G75*
G02*
X126550000Y-130353750I0J-243750D01*
G01*
X126550000Y-131266250D01*
G75*
G02*
X126306250Y-131510000I-243750J0D01*
G01*
X125818750Y-131510000D01*
G75*
G02*
X125575000Y-131266250I0J243750D01*
G01*
G37*
G36*
G01*
X127450000Y-131266250D02*
X127450000Y-130353750D01*
G75*
G02*
X127693750Y-130110000I243750J0D01*
G01*
X128181250Y-130110000D01*
G75*
G02*
X128425000Y-130353750I0J-243750D01*
G01*
X128425000Y-131266250D01*
G75*
G02*
X128181250Y-131510000I-243750J0D01*
G01*
X127693750Y-131510000D01*
G75*
G02*
X127450000Y-131266250I0J243750D01*
G01*
G37*
G36*
G01*
X128425000Y-143688750D02*
X128425000Y-144601250D01*
G75*
G02*
X128181250Y-144845000I-243750J0D01*
G01*
X127693750Y-144845000D01*
G75*
G02*
X127450000Y-144601250I0J243750D01*
G01*
X127450000Y-143688750D01*
G75*
G02*
X127693750Y-143445000I243750J0D01*
G01*
X128181250Y-143445000D01*
G75*
G02*
X128425000Y-143688750I0J-243750D01*
G01*
G37*
G36*
G01*
X126550000Y-143688750D02*
X126550000Y-144601250D01*
G75*
G02*
X126306250Y-144845000I-243750J0D01*
G01*
X125818750Y-144845000D01*
G75*
G02*
X125575000Y-144601250I0J243750D01*
G01*
X125575000Y-143688750D01*
G75*
G02*
X125818750Y-143445000I243750J0D01*
G01*
X126306250Y-143445000D01*
G75*
G02*
X126550000Y-143688750I0J-243750D01*
G01*
G37*
G36*
G01*
X132530000Y-143966250D02*
X132530000Y-143053750D01*
G75*
G02*
X132773750Y-142810000I243750J0D01*
G01*
X133261250Y-142810000D01*
G75*
G02*
X133505000Y-143053750I0J-243750D01*
G01*
X133505000Y-143966250D01*
G75*
G02*
X133261250Y-144210000I-243750J0D01*
G01*
X132773750Y-144210000D01*
G75*
G02*
X132530000Y-143966250I0J243750D01*
G01*
G37*
G36*
G01*
X130655000Y-143966250D02*
X130655000Y-143053750D01*
G75*
G02*
X130898750Y-142810000I243750J0D01*
G01*
X131386250Y-142810000D01*
G75*
G02*
X131630000Y-143053750I0J-243750D01*
G01*
X131630000Y-143966250D01*
G75*
G02*
X131386250Y-144210000I-243750J0D01*
G01*
X130898750Y-144210000D01*
G75*
G02*
X130655000Y-143966250I0J243750D01*
G01*
G37*
G36*
G01*
X163380000Y-148133750D02*
X163380000Y-149046250D01*
G75*
G02*
X163136250Y-149290000I-243750J0D01*
G01*
X162648750Y-149290000D01*
G75*
G02*
X162405000Y-149046250I0J243750D01*
G01*
X162405000Y-148133750D01*
G75*
G02*
X162648750Y-147890000I243750J0D01*
G01*
X163136250Y-147890000D01*
G75*
G02*
X163380000Y-148133750I0J-243750D01*
G01*
G37*
G36*
G01*
X165255000Y-148133750D02*
X165255000Y-149046250D01*
G75*
G02*
X165011250Y-149290000I-243750J0D01*
G01*
X164523750Y-149290000D01*
G75*
G02*
X164280000Y-149046250I0J243750D01*
G01*
X164280000Y-148133750D01*
G75*
G02*
X164523750Y-147890000I243750J0D01*
G01*
X165011250Y-147890000D01*
G75*
G02*
X165255000Y-148133750I0J-243750D01*
G01*
G37*
G36*
G01*
X164286250Y-139855000D02*
X163373750Y-139855000D01*
G75*
G02*
X163130000Y-139611250I0J243750D01*
G01*
X163130000Y-139123750D01*
G75*
G02*
X163373750Y-138880000I243750J0D01*
G01*
X164286250Y-138880000D01*
G75*
G02*
X164530000Y-139123750I0J-243750D01*
G01*
X164530000Y-139611250D01*
G75*
G02*
X164286250Y-139855000I-243750J0D01*
G01*
G37*
G36*
G01*
X164286250Y-137980000D02*
X163373750Y-137980000D01*
G75*
G02*
X163130000Y-137736250I0J243750D01*
G01*
X163130000Y-137248750D01*
G75*
G02*
X163373750Y-137005000I243750J0D01*
G01*
X164286250Y-137005000D01*
G75*
G02*
X164530000Y-137248750I0J-243750D01*
G01*
X164530000Y-137736250D01*
G75*
G02*
X164286250Y-137980000I-243750J0D01*
G01*
G37*
G36*
G01*
X164286250Y-134170000D02*
X163373750Y-134170000D01*
G75*
G02*
X163130000Y-133926250I0J243750D01*
G01*
X163130000Y-133438750D01*
G75*
G02*
X163373750Y-133195000I243750J0D01*
G01*
X164286250Y-133195000D01*
G75*
G02*
X164530000Y-133438750I0J-243750D01*
G01*
X164530000Y-133926250D01*
G75*
G02*
X164286250Y-134170000I-243750J0D01*
G01*
G37*
G36*
G01*
X164286250Y-136045000D02*
X163373750Y-136045000D01*
G75*
G02*
X163130000Y-135801250I0J243750D01*
G01*
X163130000Y-135313750D01*
G75*
G02*
X163373750Y-135070000I243750J0D01*
G01*
X164286250Y-135070000D01*
G75*
G02*
X164530000Y-135313750I0J-243750D01*
G01*
X164530000Y-135801250D01*
G75*
G02*
X164286250Y-136045000I-243750J0D01*
G01*
G37*
M02*
