M48
; DRILL file {KiCad (5.1.12)-1} date 12/08/21 10:01:53
; FORMAT={-:-/ absolute / inch / decimal}
; #@! TF.CreationDate,2021-12-08T10:01:53+00:00
; #@! TF.GenerationSoftware,Kicad,Pcbnew,(5.1.12)-1
; #@! TF.FileFunction,Plated,1,2,PTH
FMAT,2
INCH
T1C0.0157
T2C0.0394
T3C0.0598
T4C0.1575
%
G90
G05
T1
X4.8Y-4.45
X4.9Y-4.85
X5.075Y-5.225
X5.3Y-5.65
X5.4Y-4.75
X5.4Y-5.15
X7.0Y-5.15
T2
X4.75Y-5.875
X4.75Y-5.975
X4.8Y-2.15
X4.8Y-4.05
X4.85Y-5.875
X4.85Y-5.975
X4.9Y-2.15
X4.9Y-4.05
X4.95Y-5.875
X4.95Y-5.975
X5.0Y-2.15
X5.0Y-4.05
X5.05Y-5.875
X5.05Y-5.975
X5.1Y-2.15
X5.1Y-4.05
X5.15Y-5.875
X5.15Y-5.975
X5.2Y-2.15
X5.2Y-4.05
X5.3Y-2.15
X5.3Y-4.05
X5.4Y-4.05
X5.5Y-2.15
X5.5Y-4.05
X5.593Y-4.465
X5.593Y-4.565
X5.593Y-4.665
X5.593Y-4.765
X5.593Y-4.865
X5.593Y-4.965
X5.593Y-5.065
X5.593Y-5.165
X5.593Y-5.265
X5.593Y-5.365
X5.593Y-5.465
X5.593Y-5.565
X5.593Y-5.665
X5.593Y-5.765
X5.593Y-5.865
X5.6Y-2.15
X5.6598Y-4.05
X5.7Y-2.15
X5.7598Y-4.05
X5.8Y-2.15
X5.8598Y-4.05
X5.9Y-2.15
X5.9598Y-4.05
X6.0Y-2.15
X6.0598Y-4.05
X6.1Y-2.15
X6.1598Y-4.05
X6.193Y-4.465
X6.193Y-4.565
X6.193Y-4.665
X6.193Y-4.765
X6.193Y-4.865
X6.193Y-4.965
X6.193Y-5.065
X6.193Y-5.165
X6.193Y-5.265
X6.193Y-5.365
X6.193Y-5.465
X6.193Y-5.565
X6.193Y-5.665
X6.193Y-5.765
X6.193Y-5.865
X6.2Y-2.15
X6.2598Y-4.05
X6.3598Y-4.05
X6.4598Y-4.05
X6.5598Y-4.05
X6.895Y-5.499
X6.895Y-5.599
X6.895Y-5.699
X6.995Y-5.499
X6.995Y-5.599
X6.995Y-5.699
T3
X4.326Y-1.754
X4.526Y-1.754
X6.947Y-1.78
X7.147Y-1.78
T4
X4.962Y-3.639
X4.983Y-2.56
X7.0Y-2.395
X7.008Y-3.807
T2
G00X6.2401Y-1.7329
M15
G01X6.2401Y-1.8313
M16
G05
G00X6.4862Y-1.6699
M15
G01X6.3878Y-1.6699
M16
G05
G00X6.4862Y-1.912
M15
G01X6.3878Y-1.912
M16
G05
T0
M30
